<?xml version="1.0" encoding="UTF-8"?>
<svg id="Calque_2" data-name="Calque 2" xmlns="http://www.w3.org/2000/svg" viewBox="0 0 203.25 102.01">
  <defs>
    <style>
      .cls-1 {
        fill: #001405;
        stroke-width: 0px;
      }

      .cls-2 {
        fill: #9dc4f5;
        stroke: #001405;
        stroke-width: 2px;
      }
    </style>
  </defs>
  <g id="Calque_1-2" data-name="Calque 1">
    <g>
      <path class="cls-2" d="M101.87,1c55.28.29,100.05,44.98,100.38,100L1.01,99.96C1.61,44.95,46.59.72,101.87,1Z"/>
      <path class="cls-1" d="M63.47,39.44l-1.93,1.3-4.8-3.2-7.38,4.97,1.21,5.62-1.93,1.3-4.07-19.54,2.17-1.46,16.72,11.01ZM48.93,40.4l6-4.04-3.87-2.58c-1.48-.97-2.86-1.92-4.07-2.83l-.13.09c.31,1.16.67,2.73,1.09,4.74l.98,4.62Z"/>
      <path class="cls-1" d="M72.47,35.62l-10.19-16.34,2.29-.64,1.61,2.62,2.53,4.17c1.54,2.48,2.94,4.77,4.21,6.94l.15-.04c-.03-2.38-.01-5.07.03-8.06l.02-5.16v-2.85s2.39-.67,2.39-.67l1.47,2.44,2.68,4.41c1.59,2.55,2.97,4.85,4.19,6.89l.15-.04c-.02-2.63-.02-6.08.01-10.39v-2.61s.04-3.07.04-3.07l2.29-.64-.29,19.26-2.57.71-8.19-13.37-.15.04-.11,15.68-2.57.71Z"/>
      <path class="cls-1" d="M106.21,30.5l-2.32.1-2.42-5.23-8.89.38-1.91,5.42-2.32.1,6.75-18.79,2.61-.11,8.49,18.13ZM93.31,23.7l7.23-.31-1.95-4.22c-.76-1.61-1.43-3.14-1.99-4.54h-.16c-.35,1.16-.86,2.69-1.55,4.62l-1.58,4.45Z"/>
      <path class="cls-1" d="M111.54,12.85l-2.29,16.31,9.59,1.35-.28,1.99-11.79-1.66,2.57-18.3,2.2.31Z"/>
      <path class="cls-1" d="M130.15,24.9c1.25.42,2.14,1,2.72,1.69.54.71.85,1.62.89,2.72l.32,8.24-2.18-.73-.23-6.93c-.05-.68-.14-1.24-.28-1.65-.15-.38-.37-.71-.68-.95-.32-.22-.77-.45-1.34-.65l-1.9-.64-3.75,1.97-1.84,5.48-2.1-.71,5.89-17.51,2.1.71-3.29,9.45.12.07c1.54-.93,3.49-2,5.91-3.25l.64-.34,5.55-2.92,2.6.88-5.61,2.93c-1.29.68-2.53,1.32-3.8,1.95v.11s.27.09.27.09Z"/>
      <path class="cls-1" d="M139.66,40.83l9.2-16.02,1.92,1.1-9.2,16.02-1.92-1.1Z"/>
      <path class="cls-1" d="M155.08,32.27c-1.04,1.46-2.56,3.5-4.57,6.08l-4.72,6.06-1.75-1.36,11.36-14.57,2.1,1.64-.87,12.24-.15,1.96c-.19,2.13-.28,3.53-.33,4.2l.1.04c1-1.46,2.2-3.04,3.53-4.75l5.78-7.41,1.75,1.36-11.36,14.58-2.12-1.66.74-10.53.11-1.56c.22-3.11.37-5.2.5-6.27l-.1-.04Z"/>
      <path class="cls-1" d="M25.66,70.03v2.01s-6.37-.02-6.37-.02l-.06,16.47h-2.22s.06-16.48.06-16.48l-6.36-.02v-2.01s14.95.06,14.95.06Z"/>
      <path class="cls-1" d="M40.28,78.24l.03-8.16h2.22s-.07,18.49-.07,18.49h-2.22s.03-8.32.03-8.32l-10.43-.04-.03,8.32h-2.22s.07-18.49.07-18.49h2.22s-.03,8.16-.03,8.16l10.43.04Z"/>
      <path class="cls-1" d="M58.93,70.15v2.01s-10.75-.04-10.75-.04l-.02,5.91,9.66.04v2.01s-9.67-.04-9.67-.04l-.02,6.55,10.61.04v2.01s-12.84-.05-12.84-.05l.07-18.48,12.96.05Z"/>
      <path class="cls-1" d="M69.37,88.32c-1.21-.53-2.13-1.27-2.79-2.23-.66-.95-.97-2.04-.96-3.3l2.3.03c0,1.29.49,2.32,1.55,3.07,1.03.77,2.4,1.14,4.14,1.15,1.58,0,2.88-.28,3.83-.88.95-.6,1.43-1.42,1.43-2.45,0-.63-.23-1.19-.65-1.64-.45-.45-1.08-.77-1.9-.98l-5.12-1.21c-1.66-.37-2.9-1.01-3.72-1.89-.84-.85-1.23-1.93-1.23-3.25,0-1,.3-1.87.91-2.61.58-.74,1.43-1.31,2.54-1.73,1.11-.39,2.4-.6,3.88-.59,1.5,0,2.82.27,3.93.81,1.11.53,1.98,1.25,2.58,2.2.6.95.92,2.09.91,3.36h-2.3c0-1.33-.47-2.36-1.39-3.13-.95-.77-2.21-1.17-3.82-1.18-1.53,0-2.72.28-3.62.8-.9.52-1.32,1.26-1.33,2.16,0,.69.26,1.27.81,1.75.53.48,1.34.85,2.45,1.12l4.83,1.18c1.37.35,2.48.88,3.29,1.6.82.72,1.23,1.8,1.23,3.25,0,1.08-.32,2.03-.93,2.85-.64.82-1.51,1.45-2.65,1.89-1.16.44-2.48.65-3.99.65-1.61,0-3.01-.25-4.22-.78Z"/>
      <path class="cls-1" d="M83.31,70.24h2.19s-.04,11.39-.04,11.39c0,1.74.41,3.09,1.3,4.07.89.98,2.21,1.46,3.95,1.47,1.74,0,3.04-.46,3.94-1.44.9-.97,1.35-2.32,1.36-4.06l.04-11.38h2.19s-.04,11.39-.04,11.39c0,2.35-.68,4.19-1.97,5.51-1.3,1.34-3.15,1.99-5.52,1.99-2.4,0-4.25-.68-5.54-2.03-1.29-1.32-1.92-3.17-1.91-5.52l.04-11.38Z"/>
      <path class="cls-1" d="M103.49,73.51c.07,1.8.12,4.33.1,7.6l-.03,7.68h-2.22s.07-18.49.07-18.49h2.67s6.8,10.23,6.8,10.23l1.08,1.64c1.15,1.8,1.94,2.96,2.31,3.52l.11-.03c-.1-1.77-.12-3.75-.11-5.91l.04-9.4h2.22s-.07,18.49-.07,18.49h-2.69s-5.85-8.8-5.85-8.8l-.87-1.3c-1.73-2.59-2.89-4.34-3.44-5.27l-.11.03Z"/>
      <path class="cls-1" d="M122.73,88.52c-1.21-.53-2.13-1.28-2.79-2.23-.66-.95-.97-2.04-.96-3.3l2.3.03c0,1.29.49,2.33,1.55,3.07,1.03.77,2.4,1.14,4.14,1.15,1.58,0,2.88-.28,3.83-.88.95-.6,1.43-1.42,1.43-2.45,0-.63-.23-1.19-.65-1.64-.45-.45-1.08-.77-1.9-.98l-5.12-1.21c-1.66-.38-2.9-1.01-3.72-1.89-.84-.85-1.23-1.93-1.23-3.25,0-1,.3-1.87.91-2.61.58-.74,1.43-1.31,2.54-1.73,1.11-.39,2.4-.6,3.88-.59,1.5,0,2.82.27,3.93.81,1.11.53,1.98,1.25,2.58,2.2.6.95.92,2.09.91,3.36h-2.3c0-1.33-.47-2.36-1.39-3.13-.95-.77-2.21-1.17-3.82-1.18-1.53,0-2.72.28-3.62.8-.9.52-1.32,1.26-1.33,2.16,0,.69.26,1.27.81,1.75.53.48,1.34.85,2.45,1.12l4.83,1.18c1.37.35,2.48.88,3.29,1.6.82.72,1.23,1.8,1.23,3.25,0,1.08-.32,2.03-.93,2.85-.64.82-1.51,1.45-2.65,1.89-1.16.44-2.48.65-3.99.65-1.61,0-3.01-.25-4.22-.78Z"/>
      <path class="cls-1" d="M149.55,78.64l.03-8.16h2.22s-.07,18.49-.07,18.49h-2.22s.03-8.32.03-8.32l-10.43-.04-.03,8.32h-2.22s.07-18.49.07-18.49h2.22s-.03,8.17-.03,8.17l10.43.04Z"/>
      <path class="cls-1" d="M155.17,88.99l.07-18.48h2.22s-.07,18.49-.07,18.49h-2.22Z"/>
      <path class="cls-1" d="M162.96,73.73c.07,1.8.12,4.33.1,7.6l-.03,7.68h-2.22s.07-18.49.07-18.49h2.67s6.8,10.22,6.8,10.22l1.08,1.64c1.15,1.8,1.94,2.96,2.31,3.52l.11-.03c-.1-1.77-.12-3.75-.11-5.91l.03-9.4h2.22s-.07,18.49-.07,18.49h-2.69s-5.85-8.8-5.85-8.8l-.87-1.3c-1.73-2.59-2.89-4.34-3.44-5.27l-.11.03Z"/>
      <path class="cls-1" d="M192.39,70.64v2.01s-10.75-.04-10.75-.04l-.02,5.91,9.66.04v2.01s-9.67-.04-9.67-.04l-.02,6.55,10.61.04v2.01s-12.84-.05-12.84-.05l.07-18.48,12.96.05Z"/>
    </g>
  </g>
</svg>