<?xml version="1.0" encoding="UTF-8"?>
<svg id="Calque_2" data-name="Calque 2" xmlns="http://www.w3.org/2000/svg" viewBox="0 0 102 102">
  <defs>
    <style>
      .cls-1 {
        fill: #001405;
        stroke-width: 0px;
      }

      .cls-2 {
        fill: #fbe74e;
        stroke: #001405;
        stroke-width: 2px;
      }
    </style>
  </defs>
  <g id="Calque_1-2" data-name="Calque 1">
    <g>
      <circle class="cls-2" cx="51" cy="51" r="50"/>
      <path class="cls-1" d="M33.55,58.15h11.93l-6.69,17.1c-.65,1.69-.05,3.54,1.46,4.51.63.42,1.33.6,2.04.6.99,0,1.96-.39,2.69-1.15l27.66-28.43c1.04-1.09,1.36-2.68.76-4.07-.6-1.38-1.96-2.29-3.47-2.29h-11.93l6.68-17.1c.65-1.69.05-3.54-1.46-4.51-1.52-.99-3.47-.75-4.73.55l-27.63,28.43c-1.07,1.09-1.36,2.68-.78,4.07.6,1.38,1.96,2.29,3.47,2.29ZM60.76,26.64l-6.48,16.58c-.44,1.15-.31,2.45.39,3.49.7,1.02,1.85,1.64,3.11,1.64h11.8l-26.82,27.6,6.48-16.58c.44-1.15.31-2.45-.39-3.49-.7-1.02-1.85-1.64-3.11-1.64h-11.83l26.85-27.6Z"/>
    </g>
  </g>
</svg>