<?xml version="1.0" encoding="UTF-8"?>
<svg id="Calque_2" data-name="Calque 2" xmlns="http://www.w3.org/2000/svg" viewBox="0 0 168.38 101.99">
  <defs>
    <style>
      .cls-1 {
        fill: #ffcadc;
      }

      .cls-1, .cls-2, .cls-3, .cls-4, .cls-5, .cls-6 {
        stroke: #001405;
        stroke-width: 2px;
      }

      .cls-2 {
        fill: #05c92f;
      }

      .cls-2, .cls-3, .cls-4, .cls-5, .cls-6 {
        stroke-miterlimit: 10;
      }

      .cls-3 {
        fill: #9dc4f5;
      }

      .cls-4 {
        fill: #ecefec;
      }

      .cls-5 {
        fill: #ff5a4d;
      }

      .cls-6 {
        fill: #fbe74e;
      }

      .cls-7 {
        fill: #001405;
        stroke-width: 0px;
      }
    </style>
  </defs>
  <g id="Calque_1-2" data-name="Calque 1">
    <g>
      <path class="cls-1" d="M51,1h66.38c27.61,0,50,22.38,50,50h0c0,27.61-22.38,50-50,50H51C23.38,100.99,1,78.61,1,51h0C1,23.38,23.38,1,51,1Z"/>
      <path class="cls-7" d="M43.72,23.31c-1.21,0-2.3-.82-2.6-2.04-.36-1.44.52-2.89,1.96-3.25,2.8-.7,5.7-1.06,8.61-1.06h10.3c1.48,0,2.69,1.2,2.69,2.69s-1.2,2.69-2.69,2.69h-10.3c-2.47,0-4.93.3-7.31.89-.22.05-.44.08-.65.08Z"/>
      <path class="cls-7" d="M124.66,23.31c-.22,0-.44-.03-.65-.08-2.38-.59-4.84-.89-7.31-.89h-10.3c-1.48,0-2.69-1.2-2.69-2.69s1.2-2.69,2.69-2.69h10.3c2.91,0,5.81.36,8.61,1.05,1.44.36,2.32,1.82,1.96,3.25-.31,1.22-1.4,2.04-2.6,2.04h0Z"/>
      <path class="cls-4" d="M116.67,19.65H51.71c-18.26,0-33.06,14.79-33.06,33.04s14.8,33.04,33.06,33.04h64.96c18.26,0,33.06-14.79,33.06-33.04s-14.8-33.04-33.06-33.04Z"/>
      <path class="cls-7" d="M43.24,58.65h-7.16c-1.17,0-2.11-.95-2.11-2.11v-7.16c0-1.17.95-2.11,2.11-2.11h3.76c3.05,0,5.52-2.47,5.52-5.52v-3.75c0-1.16.95-2.11,2.11-2.11h7.16c1.17,0,2.11.95,2.11,2.11v7.16c0,1.17-.95,2.11-2.11,2.11h-3.58c-1.57,0-3,.64-4.03,1.67-1.03,1.03-1.67,2.45-1.67,4.02v3.58c0,1.16-.95,2.11-2.11,2.11h0Z"/>
      <path class="cls-7" d="M68.13,56.54c0,1.17-.95,2.11-2.11,2.11h-3.58c-1.57,0-3,.64-4.03,1.67-1.03,1.03-1.67,2.45-1.67,4.02v3.58c0,1.16-.95,2.11-2.11,2.11h-7.16c-1.17,0-2.11-.95-2.11-2.11v-7.16c0-1.17.95-2.11,2.11-2.11h3.76c3.05,0,5.52-2.47,5.52-5.52v-3.75c0-1.16.95-2.11,2.11-2.11h7.16c1.17,0,2.11.95,2.11,2.11v7.16h0Z"/>
      <path class="cls-6" d="M113.58,45.12c3.65,0,6.6-2.95,6.6-6.6s-2.96-6.6-6.6-6.6-6.6,2.95-6.6,6.6,2.96,6.6,6.6,6.6Z"/>
      <path class="cls-3" d="M99.4,59.29c3.65,0,6.6-2.95,6.6-6.6s-2.96-6.6-6.6-6.6-6.6,2.95-6.6,6.6,2.96,6.6,6.6,6.6Z"/>
      <path class="cls-5" d="M127.8,59.29c3.65,0,6.6-2.95,6.6-6.6s-2.96-6.6-6.6-6.6-6.6,2.95-6.6,6.6,2.96,6.6,6.6,6.6Z"/>
      <path class="cls-2" d="M113.58,73.45c3.65,0,6.6-2.95,6.6-6.6s-2.96-6.6-6.6-6.6-6.6,2.95-6.6,6.6,2.96,6.6,6.6,6.6Z"/>
    </g>
  </g>
</svg>