<?xml version="1.0" encoding="UTF-8"?>
<svg id="Calque_2" data-name="Calque 2" xmlns="http://www.w3.org/2000/svg" viewBox="0 0 78.29 106.9">
  <defs>
    <style>
      .cls-1 {
        stroke-width: 0px;
      }

      .cls-1, .cls-2 {
        fill: #ffcadc;
      }

      .cls-2, .cls-3 {
        stroke: #001405;
        stroke-linecap: round;
        stroke-linejoin: round;
        stroke-width: 2px;
      }

      .cls-3 {
        fill: none;
      }
    </style>
  </defs>
  <g id="Calque_1-2" data-name="Calque 1">
    <g>
      <path class="cls-2" d="M9.92,50.59L1.24,12.61C.07,7.52,3.31,2.4,8.43,1.24c.7-.16,1.41-.24,2.11-.24,4.36,0,8.32,3,9.32,7.39l8.38,36.67,8.38-36.67c1-4.39,4.97-7.39,9.33-7.39.7,0,1.4.07,2.11.24,5.12,1.16,8.36,6.28,7.19,11.38l-7.43,32.51c1.17-.52,2.47-.81,3.84-.81,2.04,0,3.94.65,5.5,1.75,1.56,1.1,2.78,2.65,3.45,4.46.88-.98,1.95-1.79,3.17-2.34,1.21-.56,2.56-.87,3.97-.87,5.25,0,9.55,4.28,9.55,9.5v13.54c.13,19.44-15.99,35.55-35.72,35.55h-1.96c-9.86,0-18.79-3.98-25.26-10.41-6.46-6.43-10.46-15.32-10.46-25.14,0-7.32,2.22-14.11,6.03-19.76Z"/>
      <path class="cls-3" d="M76.56,56.68c0-5.22-4.11-9.46-9.17-9.46s-9.17,4.24-9.17,9.46v8.22c0,5.22,4.11,9.46,9.17,9.46s9.17-4.24,9.17-9.46v-8.22Z"/>
      <path class="cls-2" d="M60.42,53.74c0-5.22-4.11-9.46-9.17-9.46s-9.17,4.24-9.17,9.46v8.22c0,5.22,4.11,9.46,9.17,9.46s9.17-4.24,9.17-9.46v-8.22Z"/>
      <path class="cls-1" d="M22.1,67.02h17.51c4.58,0,8.33-3.63,8.33-8.07s-3.75-8.07-8.33-8.07h-19.72c-3.36,0-6.26,1.94-7.58,4.73,0,0-1.65,3.08-2.51,7.33"/>
      <path class="cls-3" d="M22.1,67.02h17.51c4.58,0,8.33-3.63,8.33-8.07s-3.75-8.07-8.33-8.07h-19.72c-3.36,0-6.26,1.94-7.58,4.73,0,0-1.65,3.08-2.51,7.33"/>
    </g>
  </g>
</svg>