<?xml version="1.0" encoding="UTF-8"?>
<svg id="Calque_2" data-name="Calque 2" xmlns="http://www.w3.org/2000/svg" viewBox="0 0 101.99 102">
  <defs>
    <style>
      .cls-1 {
        fill: #05c92f;
      }

      .cls-1, .cls-2 {
        stroke-miterlimit: 10;
      }

      .cls-1, .cls-2, .cls-3 {
        stroke: #001405;
        stroke-width: 2px;
      }

      .cls-2 {
        fill: #ff5a4d;
      }

      .cls-4 {
        fill: #001405;
        stroke-width: 0px;
      }

      .cls-3 {
        fill: #fbe74e;
      }
    </style>
  </defs>
  <g id="Calque_1-2" data-name="Calque 1">
    <g>
      <path class="cls-2" d="M90.63,1H11.36C5.64,1,1,5.64,1,11.36v79.28c0,5.72,4.64,10.36,10.36,10.36h79.27c5.72,0,10.36-4.64,10.36-10.36V11.36c0-5.72-4.64-10.36-10.36-10.36Z"/>
      <path class="cls-1" d="M84.98,50.84c0,18.86-15.29,34.15-34.15,34.15s-34.15-15.29-34.15-34.15S31.98,16.69,50.83,16.69v34.15h34.15Z"/>
      <path class="cls-3" d="M84.31,26.55c0,5.08-4.12,9.2-9.2,9.2s-9.2-4.12-9.2-9.2,4.12-9.2,9.2-9.2,9.2,4.12,9.2,9.2Z"/>
      <path class="cls-4" d="M36.39,44.13c1.61,0,2.92-1.31,2.92-2.92s-1.31-2.92-2.92-2.92-2.92,1.31-2.92,2.92,1.31,2.92,2.92,2.92Z"/>
    </g>
  </g>
</svg>